<?xml version="1.0" standalone="no"?><!DOCTYPE svg PUBLIC "-//W3C//DTD SVG 1.1//EN" "http://www.w3.org/Graphics/SVG/1.1/DTD/svg11.dtd"><svg t="1611985409127" class="icon" viewBox="0 0 1024 1024" version="1.1" xmlns="http://www.w3.org/2000/svg" p-id="2533" xmlns:xlink="http://www.w3.org/1999/xlink" width="200" height="200"><defs><style type="text/css"></style></defs><path d="M512 533.76c-9.941333 0-19.925333-2.816-27.008-9.856l-384-320.981333a42.410667 42.410667 0 0 1-5.717333-59.349334c15.658667-18.389333 42.666667-19.797333 59.733333-5.674666L512 434.816l356.992-296.917333a41.514667 41.514667 0 0 1 59.733333 5.674666 40.96 40.96 0 0 1-5.717333 59.349334l-382.549333 320.981333c-8.533333 5.632-18.517333 9.898667-28.458667 9.898667z" p-id="2534"></path><path d="M896 853.333333H128a41.813333 41.813333 0 0 1-42.666667-42.410666V170.410667A41.813333 41.813333 0 0 1 128 128h768c24.192 0 42.666667 18.346667 42.666667 42.410667v640.512A41.813333 41.813333 0 0 1 896 853.333333zM170.666667 768.512h682.666666V212.821333H170.666667v555.690667z" p-id="2535"></path></svg>